<?xml version="1.0" standalone="no"?>
<!DOCTYPE svg PUBLIC "-//W3C//DTD SVG 1.1//EN" "http://www.w3.org/Graphics/SVG/1.1/DTD/svg11.dtd" >
<svg xmlns="http://www.w3.org/2000/svg" xmlns:xlink="http://www.w3.org/1999/xlink" version="1.1">
<metadata></metadata>
<defs>
<font id="elsa_regularregular" horiz-adv-x="1318" >
<font-face units-per-em="2048" ascent="1495" descent="-553" />
<missing-glyph horiz-adv-x="368" />
<glyph horiz-adv-x="0" />
<glyph horiz-adv-x="0" />
<glyph horiz-adv-x="682" />
<glyph unicode="&#xd;" horiz-adv-x="0" />
<glyph unicode=" "  horiz-adv-x="368" />
<glyph unicode="&#x09;" horiz-adv-x="368" />
<glyph unicode="&#xa0;" horiz-adv-x="368" />
<glyph unicode="!" horiz-adv-x="473" d="M100 123q0 57 39.5 96t96.5 39q58 0 97.5 -39t39.5 -96q0 -59 -39.5 -98t-97.5 -39q-57 0 -96.5 39.5t-39.5 97.5zM152 408v1026h170v-1026h-170z" />
<glyph unicode="&#x22;" horiz-adv-x="532" d="M59 1434h166l-22 -418h-129zM307 1434h166l-22 -418h-129z" />
<glyph unicode="#" horiz-adv-x="1386" d="M41 387l22 164h263l55 338h-281l25 160h283l65 385h180l-65 -385h325l64 385h182l-63 -385h250l-23 -160h-254l-57 -338h272l-22 -164h-277l-63 -387h-181l64 387h-328l-65 -387h-179l64 387h-256zM504 551h327l56 338h-326z" />
<glyph unicode="$" horiz-adv-x="1234" d="M127 1049q0 184 114.5 284.5t309.5 116.5v176h135v-172q213 -6 363 -57v-172q-163 43 -363 49v-479l94 -17q165 -32 246.5 -120.5t81.5 -258.5q0 -187 -109.5 -291.5t-312.5 -123.5v-207h-135v203q-232 6 -391 71v176q185 -69 391 -77v489l-90 18q-166 32 -250 124.5 t-84 267.5zM317 1049q0 -100 48.5 -151t162.5 -73l23 -4v447q-112 -14 -173 -68.5t-61 -150.5zM686 154q111 16 172.5 72.5t61.5 156.5q0 97 -48.5 150.5t-162.5 74.5l-23 4v-458z" />
<glyph unicode="%" horiz-adv-x="1949" d="M123 1044q0 188 90 297t248 109q170 0 255 -105t85 -301q0 -195 -86.5 -300t-253.5 -105q-160 0 -249 106t-89 299zM268 1044q0 -135 49 -211.5t144 -76.5q196 0 196 288q0 287 -194 287q-96 0 -145.5 -76.5t-49.5 -210.5zM518 0l750 1434h170l-750 -1434h-170zM1149 385 q0 188 90 297t248 109q170 0 255 -105t85 -301q0 -195 -86.5 -300t-253.5 -105q-160 0 -249 106t-89 299zM1294 385q0 -135 49 -212t144 -77q196 0 196 289q0 287 -194 287q-96 0 -145.5 -76.5t-49.5 -210.5z" />
<glyph unicode="&#x26;" horiz-adv-x="1388" d="M141 354q0 99 44 175.5t130 152.5l82 72l-28 34q-152 171 -152 347q0 143 93 231t237 88q154 0 238.5 -88t84.5 -223q0 -161 -155 -303l-101 -88l304 -353l253 256l111 -108l-266 -264l35 -39q44 -49 71 -65.5t66 -16.5h92v-162h-127q-52 0 -93.5 23.5t-84.5 72.5l-70 78 q-42 -42 -77 -71t-85 -60t-108.5 -47t-124.5 -16q-165 0 -267 105t-102 269zM315 360q0 -97 58.5 -157t144.5 -60q84 0 150.5 38t138.5 108l-313 356l-52 -45q-69 -63 -98 -118t-29 -122zM375 1133q0 -57 20 -100.5t64 -96.5l61 -74l62 56q131 113 131 215q0 74 -43.5 124 t-124.5 50q-71 0 -120.5 -47.5t-49.5 -126.5z" />
<glyph unicode="'" horiz-adv-x="282" d="M59 1434h166l-22 -418h-129z" />
<glyph unicode="(" horiz-adv-x="690" d="M145 569q0 273 89 491t239 374h191q-139 -156 -228.5 -385t-89.5 -480q0 -446 318 -866h-193q-326 391 -326 866z" />
<glyph unicode=")" horiz-adv-x="690" d="M27 -297q139 156 228 384.5t89 481.5q0 450 -317 865h192q326 -391 326 -865q0 -273 -88.5 -490.5t-239.5 -375.5h-190z" />
<glyph unicode="*" horiz-adv-x="780" d="M74 1036l229 92l-229 93l80 141l196 -156l-37 248h164l-37 -248l197 156l80 -141l-232 -93l232 -92l-80 -141l-195 152l35 -244h-164l35 244l-194 -152z" />
<glyph unicode="+" horiz-adv-x="995" d="M104 426v162h312v325h164v-325h311v-162h-311v-326h-164v326h-312z" />
<glyph unicode="," horiz-adv-x="372" d="M109 -272v555h194l-67 -555h-127z" />
<glyph unicode="-" horiz-adv-x="892" d="M104 428v160h684v-160h-684z" />
<glyph unicode="." horiz-adv-x="450" d="M84 125q0 60 40.5 100.5t100.5 40.5q59 0 100.5 -40.5t41.5 -100.5q0 -58 -41.5 -99.5t-100.5 -41.5q-60 0 -100.5 41t-40.5 100z" />
<glyph unicode="/" horiz-adv-x="636" d="M31 -223l397 1657h176l-397 -1657h-176z" />
<glyph unicode="0" horiz-adv-x="1114" d="M102 483q0 246 120.5 382t340.5 136q217 0 333 -136t116 -382q0 -239 -119.5 -369t-329.5 -130q-217 0 -339 130t-122 369zM266 483q0 -166 80.5 -260t214.5 -94q129 0 208 93.5t79 260.5q0 183 -76.5 279t-210.5 96q-139 0 -217 -95.5t-78 -279.5z" />
<glyph unicode="1" horiz-adv-x="835" d="M113 623v172l327 186h170v-981h-168v795h-16z" />
<glyph unicode="2" horiz-adv-x="991" d="M129 0v172l373 248q102 69 142 125.5t40 126.5q0 81 -58.5 129.5t-176.5 48.5q-75 0 -162 -18t-152 -44v152q62 26 154.5 43.5t185.5 17.5q192 0 287.5 -86.5t95.5 -222.5q0 -109 -54.5 -188.5t-189.5 -169.5l-268 -180v-13h549v-141h-766z" />
<glyph unicode="3" horiz-adv-x="964" d="M102 -254l340 86q112 28 171 80.5t59 142.5q0 193 -213 193h-236v151h260l97 103q63 67 63 151q0 83 -46.5 123.5t-156.5 40.5h-323l-13 166h369q338 0 338 -307q0 -123 -96 -227l-86 -93q104 -31 163.5 -105.5t59.5 -193.5q0 -79 -25.5 -141.5t-74.5 -105.5t-109 -72 t-139 -49l-402 -103v160z" />
<glyph unicode="4" horiz-adv-x="1134" d="M123 0v111l156 870h165l-149 -821v-19h420v582h159v-582h220v-141h-220v-276h-159v276h-592z" />
<glyph unicode="5" horiz-adv-x="1036" d="M131 297v684h750l-9 -164h-577v-379h221q205 0 304.5 -95t99.5 -267q0 -85 -30 -154.5t-82 -115.5t-116.5 -75t-140.5 -42l-404 -76v151l359 70q241 42 244 240q0 114 -68 168.5t-211 54.5h-340z" />
<glyph unicode="6" horiz-adv-x="1132" d="M113 649q0 159 37.5 278.5t111.5 198.5t170 126.5t225 74.5l201 37v-156l-192 -41q-93 -23 -160 -58t-119 -94t-78 -148t-26 -210l63 54q130 108 297 108q79 0 146 -22t122.5 -67.5t87 -125t31.5 -186.5q0 -199 -118.5 -318.5t-303.5 -119.5q-238 0 -366.5 164 t-128.5 505zM287 530q38 -395 321 -395q116 0 186 76t70 207q0 132 -72.5 197t-187.5 65q-106 0 -196 -64z" />
<glyph unicode="7" horiz-adv-x="972" d="M41 817v164h850v-158l-442 -1091h-183l422 1056v29h-647z" />
<glyph unicode="8" horiz-adv-x="1097" d="M102 332q0 264 265 373q-103 44 -164.5 125t-61.5 196q0 105 56 185.5t148.5 121.5t203.5 41q166 0 282.5 -92t116.5 -242q0 -199 -239 -323l18 -6q268 -102 268 -346q0 -120 -61 -209t-161 -132.5t-224 -43.5q-200 0 -323.5 95.5t-123.5 256.5zM270 356 q0 -112 76.5 -174.5t202.5 -62.5q121 0 198.5 64t77.5 179q0 90 -48 144.5t-140 89.5l-152 61q-58 -29 -95 -55t-65.5 -61t-41.5 -80t-13 -105zM309 1028q0 -83 42.5 -135.5t131.5 -85.5l115 -45q91 60 138.5 121.5t47.5 136.5q0 100 -69.5 157.5t-165.5 57.5t-167.5 -57.5 t-72.5 -149.5z" />
<glyph unicode="9" horiz-adv-x="1079" d="M86 563q0 201 114 319.5t298 118.5q489 0 489 -690q0 -137 -26.5 -244t-72 -180t-116 -126.5t-148 -84t-178.5 -51.5l-229 -45v156l209 43q75 17 129 37.5t106.5 59t84.5 93t52 138.5t21 196l-80 -70q-111 -100 -276 -100t-271 111.5t-106 318.5zM250 565 q0 -144 70 -219.5t182 -75.5q60 0 101.5 16.5t86.5 49.5l125 92q-17 219 -96 319.5t-219 100.5q-117 0 -183.5 -75.5t-66.5 -207.5z" />
<glyph unicode=":" horiz-adv-x="450" d="M84 125q0 60 40.5 100.5t100.5 40.5q59 0 100.5 -40.5t41.5 -100.5q0 -58 -41.5 -99.5t-100.5 -41.5q-60 0 -100.5 41t-40.5 100zM84 854q0 60 40.5 100.5t100.5 40.5q59 0 100.5 -40.5t41.5 -100.5q0 -58 -41.5 -99.5t-100.5 -41.5q-60 0 -100.5 41t-40.5 100z" />
<glyph unicode=";" horiz-adv-x="450" d="M84 854q0 60 40.5 100.5t100.5 40.5q59 0 100.5 -40.5t41.5 -100.5q0 -58 -41.5 -99.5t-100.5 -41.5q-60 0 -100.5 41t-40.5 100zM113 -272v555h194l-67 -555h-127z" />
<glyph unicode="&#x3c;" horiz-adv-x="800" d="M84 428v137l602 324v-178l-410 -207v-17l410 -206v-183z" />
<glyph unicode="=" horiz-adv-x="995" d="M104 215v168h787v-168h-787zM104 614v168h787v-168h-787z" />
<glyph unicode="&#x3e;" horiz-adv-x="800" d="M115 98v178l409 207v17l-409 207v182l602 -330v-137z" />
<glyph unicode="?" horiz-adv-x="966" d="M121 1245v166q172 43 344 43q235 0 336.5 -96t101.5 -285q0 -246 -205 -328l-153 -61q-57 -23 -83 -61t-26 -111q0 -65 29 -164l-150 -33q-47 112 -47 226q0 196 172 266l172 72q121 54 121 186q0 106 -65.5 161.5t-218.5 55.5q-136 0 -328 -37zM313 111q0 53 37.5 90 t89.5 37q54 0 90.5 -37t36.5 -90q0 -54 -36.5 -90.5t-90.5 -36.5q-53 0 -90 36.5t-37 90.5z" />
<glyph unicode="@" horiz-adv-x="1945" d="M115 481q0 198 62.5 361.5t176.5 276t277 174t360 61.5q259 0 453 -104.5t296.5 -289t102.5 -423.5q0 -102 -31 -198.5t-86 -172t-137.5 -121t-177.5 -45.5h-164l-30 137q-177 -153 -345 -153q-119 0 -193.5 77t-74.5 234q0 137 81 208.5t257 71.5h254v87q0 106 -55 152 t-160 46q-154 0 -283 -35l-2 131q133 45 310 45q356 0 356 -352v-536h63q83 0 147.5 59t97 153.5t32.5 206.5q0 315 -186.5 498.5t-526.5 183.5q-348 0 -537.5 -192.5t-189.5 -540.5q0 -177 51.5 -313.5t145 -222t219 -129t278.5 -43.5h760v-129h-770q-179 0 -330.5 55.5 t-263 159.5t-174.5 263.5t-63 358.5zM750 295q0 -89 41 -131.5t108 -42.5q137 0 297 143v187h-225q-123 0 -172 -40t-49 -116z" />
<glyph unicode="A" d="M51 0l514 1434h187l516 -1434h-191l-110 317h-617l-108 -317h-191zM397 467h521l-256 733h-11z" />
<glyph unicode="B" horiz-adv-x="1255" d="M184 0v1434h496q367 0 367 -328q0 -143 -97 -244l-92 -96q126 -31 200.5 -119.5t74.5 -238.5q0 -197 -114.5 -302.5t-326.5 -105.5h-508zM354 145h326q136 0 205 63.5t69 201.5q0 136 -71.5 198t-190.5 62h-338v-525zM354 803h351l102 104q67 71 67 174q0 105 -56 155 t-181 50h-283v-483z" />
<glyph unicode="C" horiz-adv-x="1187" d="M123 717q0 187 48.5 330.5t134 231t196.5 131.5t243 44q188 0 334 -47v-162q-137 35 -291 35q-225 0 -353 -140.5t-128 -422.5q0 -279 124.5 -421t361.5 -142q170 0 292 41v-164q-145 -51 -340 -51q-292 0 -457 194.5t-165 542.5z" />
<glyph unicode="D" horiz-adv-x="1366" d="M184 0v1434h408q307 0 479 -183t172 -540q0 -152 -36 -274t-96.5 -202.5t-145 -134t-178.5 -77t-199 -23.5h-404zM362 164h207q111 0 198 29.5t154 92.5t102.5 170t35.5 253q0 273 -120.5 417t-367.5 144h-209v-1106z" />
<glyph unicode="E" horiz-adv-x="1175" d="M184 0v1434h863v-170h-680v-447h571l-16 -166h-555v-481h686v-170h-869z" />
<glyph unicode="F" horiz-adv-x="1138" d="M184 0v1434h842v-170h-659v-488h579l-20 -170h-559v-606h-183z" />
<glyph unicode="G" horiz-adv-x="1366" d="M123 707q0 193 49 338t138 233.5t207 132t263 43.5q209 0 402 -59v-154q-215 45 -373 45q-496 0 -496 -579q0 -290 117 -426t348 -136q146 0 283 50v387h-342v151h504v-659q-218 -94 -465 -94q-308 0 -471.5 180.5t-163.5 546.5z" />
<glyph unicode="H" horiz-adv-x="1394" d="M184 0v1434h183v-623h661v623h182v-1434h-182v647h-661v-647h-183z" />
<glyph unicode="I" horiz-adv-x="950" d="M143 0v152h238v1130h-238v152h664v-152h-238v-1130h238v-152h-664z" />
<glyph unicode="J" horiz-adv-x="595" d="M20 -266q116 37 162.5 120.5t46.5 223.5v1356h183v-1356q0 -213 -81 -333.5t-259 -162.5z" />
<glyph unicode="K" horiz-adv-x="1261" d="M184 0v1434h183v-629h239v2l324 627h198l-368 -697l420 -737h-211l-363 643h-239v-643h-183z" />
<glyph unicode="L" horiz-adv-x="1079" d="M184 0v1434h183v-1272h630v-162h-813z" />
<glyph unicode="M" horiz-adv-x="1720" d="M184 0v1434h273l395 -1090h20l402 1090h262v-1434h-176l20 1196h-24l-406 -1044h-184l-404 1044h-22l18 -1196h-174z" />
<glyph unicode="N" horiz-adv-x="1513" d="M184 0v1434h299l656 -1250h18l-10 1250h182v-1434h-297l-653 1249h-23l9 -1249h-181z" />
<glyph unicode="O" horiz-adv-x="1411" d="M123 717q0 360 160 548.5t426 188.5q268 0 423.5 -187.5t155.5 -549.5q0 -192 -41 -335t-118 -230t-181.5 -129.5t-236.5 -42.5q-105 0 -193 25.5t-161.5 82t-125 141.5t-80 209t-28.5 279zM317 717q0 -300 104 -439t290 -139q192 0 288.5 137t96.5 441q0 283 -105 430 t-280 147q-181 0 -287.5 -146.5t-106.5 -430.5z" />
<glyph unicode="P" horiz-adv-x="1230" d="M184 0v1434h400q90 0 167 -16t143.5 -51.5t113.5 -89t73.5 -131.5t26.5 -175q0 -125 -40.5 -222t-112.5 -157.5t-166 -91.5t-205 -31h-217v-469h-183zM367 623h196q173 0 268 91t95 242q0 161 -93 242.5t-270 81.5h-196v-657z" />
<glyph unicode="Q" horiz-adv-x="1425" d="M123 717q0 360 160 548.5t426 188.5q268 0 423.5 -187.5t155.5 -549.5q0 -435 -211 -617l226 -286l-166 -107l-205 309q-95 -36 -221 -36q-105 0 -193 25.5t-161.5 82t-125 141.5t-80 209t-28.5 279zM317 717q0 -300 104 -439t290 -139q192 0 288.5 137t96.5 441 q0 283 -105 430t-280 147q-181 0 -287.5 -146.5t-106.5 -430.5z" />
<glyph unicode="R" horiz-adv-x="1277" d="M184 0v1434h418q234 0 369 -112.5t135 -324.5q0 -140 -70 -253.5t-196 -174.5l336 -569h-215l-279 522q-43 -6 -82 -6h-233v-516h-183zM367 670h219q160 0 248 84.5t88 236.5q0 149 -87.5 222t-252.5 73h-215v-616z" />
<glyph unicode="S" horiz-adv-x="1247" d="M133 1049q0 202 137 303.5t365 101.5q252 0 420 -57v-172q-179 49 -408 49q-323 0 -323 -225q0 -100 48.5 -151t162.5 -73l251 -47q165 -32 246.5 -120.5t81.5 -258.5q0 -208 -133 -313.5t-379 -105.5q-253 0 -436 71v176q210 -77 442 -77q150 0 234 57.5t84 175.5 q0 97 -48.5 150.5t-162.5 74.5l-248 49q-166 32 -250 124.5t-84 267.5z" />
<glyph unicode="T" horiz-adv-x="1146" d="M41 1274v160h1065v-160h-440v-1274h-185v1274h-440z" />
<glyph unicode="U" horiz-adv-x="1431" d="M184 481v953h185v-965q0 -160 91 -242t251 -82q161 0 258.5 82.5t97.5 243.5v963h180v-951q0 -253 -141.5 -378t-394.5 -125q-250 0 -388.5 124.5t-138.5 376.5z" />
<glyph unicode="V" horiz-adv-x="1341" d="M41 1434h207l420 -1223h20l414 1223h198l-516 -1434h-225z" />
<glyph unicode="W" horiz-adv-x="2045" d="M102 1434h201l254 -1231h21l311 1231h287l307 -1229h14l250 1229h197l-304 -1434h-280l-326 1229h-18l-326 -1229h-280z" />
<glyph unicode="X" horiz-adv-x="1271" d="M41 0l430 729l-395 705h207l333 -627h48l333 627h205l-403 -707l432 -727h-225l-344 639h-46l-352 -639h-223z" />
<glyph unicode="Y" horiz-adv-x="1284" d="M41 1434h217l377 -699h22l379 699h207l-510 -863v-571h-182v565z" />
<glyph unicode="Z" horiz-adv-x="1216" d="M102 0v158l762 1099v17h-745v160h962v-160l-764 -1100v-14h797v-160h-1012z" />
<glyph unicode="[" horiz-adv-x="626" d="M168 -297v1731h426v-140h-250v-1452h250v-139h-426z" />
<glyph unicode="\" horiz-adv-x="636" d="M31 1434h178l395 -1657h-174z" />
<glyph unicode="]" horiz-adv-x="626" d="M31 -158h252v1452h-252v140h428v-1731h-428v139z" />
<glyph unicode="^" horiz-adv-x="964" d="M115 606l270 402h197l268 -402h-160l-207 279l-209 -279h-159z" />
<glyph unicode="_" horiz-adv-x="1024" d="M0 -190h1024v-117h-1024v117z" />
<glyph unicode="`" horiz-adv-x="468" d="M80 1446h172l137 -338h-145z" />
<glyph unicode="a" horiz-adv-x="985" d="M92 283q0 292 330 292h268v80q0 197 -221 197q-128 0 -311 -39v141q173 47 329 47q182 0 273.5 -85.5t91.5 -266.5v-649h-129l-21 133q-162 -151 -340 -151q-120 0 -195 75.5t-75 225.5zM242 291q0 -166 155 -166q79 0 142 35.5t151 118.5v159h-229q-125 0 -172 -34.5 t-47 -112.5z" />
<glyph unicode="b" horiz-adv-x="1073" d="M154 0v1354h172v-518l82 79q86 86 208 86q170 0 262.5 -131t92.5 -360q0 -247 -106 -388.5t-271 -141.5q-92 0 -161 35.5t-132 107.5l-25 -123h-122zM326 295q62 -82 117.5 -123t119.5 -41q110 0 173 96.5t63 272.5q0 157 -54 248.5t-155 91.5q-75 0 -141 -66l-123 -125 v-354z" />
<glyph unicode="c" horiz-adv-x="868" d="M102 498q0 250 113 376.5t322 126.5q130 0 239 -38v-154q-103 33 -223 33q-281 0 -281 -348q0 -164 74 -256.5t211 -92.5q115 0 219 35v-157q-101 -43 -237 -43q-203 0 -320 135t-117 383z" />
<glyph unicode="d" horiz-adv-x="1083" d="M102 487q0 235 101 374.5t262 139.5q138 0 221 -83l72 -70v506h172v-1354h-127l-25 131q-70 -77 -138.5 -114t-162.5 -37q-168 0 -271.5 130.5t-103.5 376.5zM274 487q0 -170 64.5 -263t175.5 -93q125 0 244 162v358l-123 125q-64 64 -141 64q-102 0 -161 -95t-59 -258z " />
<glyph unicode="e" horiz-adv-x="989" d="M102 485q0 132 34.5 234t93 162t130.5 90t154 30q185 0 279 -123t94 -350q0 -80 -10 -118h-615q14 -151 89 -215t216 -64q157 0 281 41v-145q-139 -47 -303 -47q-205 0 -324 125t-119 380zM262 555h477q0 150 -59.5 224.5t-171.5 74.5q-97 0 -166 -73.5t-80 -225.5z" />
<glyph unicode="f" horiz-adv-x="743" d="M94 831v150h154v117q0 159 78.5 252.5t253.5 93.5h102v-152h-76q-104 0 -144 -54.5t-40 -158.5v-98h225v-150h-225v-831h-174v831h-154z" />
<glyph unicode="g" horiz-adv-x="1089" d="M102 487q0 234 102 374t261 140q75 0 124.5 -19.5t96.5 -66.5l94 -92l25 158h131v-1036q0 -192 -113.5 -294t-328.5 -102q-194 0 -330 45v154q151 -53 309 -53q140 0 214.5 63t74.5 181v184q-63 -69 -132.5 -106t-162.5 -37q-161 0 -263 131t-102 376zM274 487 q0 -170 64.5 -263t175.5 -93q71 0 130.5 44.5t117.5 121.5v352l-125 127q-64 64 -143 64q-102 0 -161 -95t-59 -258z" />
<glyph unicode="h" horiz-adv-x="1077" d="M154 0v1354h174v-518l75 67q61 53 117 76q54 22 139 22h7q134 -1 206 -87t72 -242v-672h-180v618q0 218 -154 218q-88 0 -159 -62l-123 -110v-664h-174z" />
<glyph unicode="i" horiz-adv-x="626" d="M102 831v150h344v-981h-172v831h-172zM246 1274q0 46 32 78t74 32q50 0 80.5 -31t30.5 -79q0 -43 -31 -75t-80 -32q-41 0 -73.5 33t-32.5 74z" />
<glyph unicode="j" horiz-adv-x="624" d="M51 -322q97 34 159 113.5t62 190.5v849h-178v150h352v-1010q0 -167 -96 -270.5t-246 -140.5zM242 1274q0 46 32.5 78t73.5 32q50 0 81.5 -31t31.5 -79q0 -43 -32 -75t-81 -32q-40 0 -73 33t-33 74z" />
<glyph unicode="k" horiz-adv-x="970" d="M154 0v1354h170v-768h137l229 395h178l-262 -455l303 -526h-194l-256 449h-135v-449h-170z" />
<glyph unicode="l" horiz-adv-x="485" d="M154 0v1354h178v-1354h-178z" />
<glyph unicode="m" horiz-adv-x="1699" d="M150 0v981h145l18 -164l93 82q57 50 115.5 76t137.5 26q214 0 267 -192l100 90q58 50 117 76t143 26q136 0 208.5 -83t72.5 -246v-672h-181v618q0 218 -155 218q-51 0 -89.5 -20t-78.5 -58l-119 -109v-649h-180v618q0 218 -156 218q-51 0 -89.5 -20t-78.5 -58l-112 -103 v-655h-178z" />
<glyph unicode="n" horiz-adv-x="1081" d="M154 0v981h149l16 -162l95 86q56 49 113 72.5t141 23.5q137 0 208.5 -83t71.5 -246v-672h-180v618q0 218 -156 218q-95 0 -174 -76l-106 -101v-659h-178z" />
<glyph unicode="o" horiz-adv-x="1034" d="M102 492q0 238 109.5 373.5t304.5 135.5q207 0 311.5 -131.5t104.5 -377.5q0 -248 -106 -380t-310 -132q-197 0 -305.5 133.5t-108.5 378.5zM274 492q0 -173 61 -270t181 -97q244 0 244 367q0 364 -244 364q-120 0 -181 -96.5t-61 -267.5z" />
<glyph unicode="p" horiz-adv-x="1073" d="M154 -453v1434h133l22 -162l92 94q47 47 99 67.5t129 20.5q161 0 251.5 -131.5t90.5 -359.5q0 -249 -109.5 -389.5t-288.5 -140.5q-132 0 -247 94v-527h-172zM326 250q110 -119 223 -119q121 0 185.5 95t64.5 274q0 157 -54 248.5t-155 91.5q-41 0 -69.5 -12.5 t-59.5 -43.5l-135 -137v-397z" />
<glyph unicode="q" horiz-adv-x="1083" d="M102 487q0 233 99.5 373.5t253.5 140.5q141 0 231 -90l90 -88l25 158h129v-1411h-172v539q-132 -129 -285 -129q-165 0 -268 130.5t-103 376.5zM274 487q0 -170 64.5 -263t175.5 -93q120 0 244 166v350l-127 129q-61 64 -137 64q-102 0 -161 -95t-59 -258z" />
<glyph unicode="r" horiz-adv-x="813" d="M92 0v135h121v717h-121v129h262l25 -205l70 90q48 62 102.5 88.5t124.5 26.5h76v-174h-82q-58 0 -102.5 -20.5t-84.5 -69.5l-92 -105v-477h180v-135h-479z" />
<glyph unicode="s" horiz-adv-x="935" d="M117 705q0 141 97.5 218.5t266.5 77.5q155 0 307 -49v-149q-157 45 -313 45q-207 0 -207 -135q0 -53 28.5 -81t92.5 -40l223 -41q213 -40 213 -277q0 -144 -92.5 -219t-263.5 -75q-163 0 -328 51v157q157 -55 322 -55q211 0 211 135q0 53 -29.5 82.5t-97.5 42.5l-205 39 q-108 18 -166.5 82.5t-58.5 190.5z" />
<glyph unicode="t" horiz-adv-x="759" d="M61 831v150h144v252l180 37v-289h283v-150h-283v-462q0 -107 48.5 -160t137.5 -53h117v-156h-160q-153 0 -238 88.5t-85 265.5v477h-144z" />
<glyph unicode="u" horiz-adv-x="1085" d="M143 309v672h183v-625q0 -110 41.5 -163.5t117.5 -53.5q52 0 85.5 17.5t74.5 54.5l115 104v666h182v-981h-143l-23 158l-94 -84q-56 -48 -112 -71t-144 -23q-138 0 -210.5 83t-72.5 246z" />
<glyph unicode="v" horiz-adv-x="991" d="M31 981h180l276 -817h25l276 817h173l-345 -981h-239z" />
<glyph unicode="w" horiz-adv-x="1486" d="M72 981h176l155 -811h15l219 811h223l217 -811h17l151 811h170l-203 -981h-243l-217 803h-15l-213 -803h-237z" />
<glyph unicode="x" horiz-adv-x="976" d="M51 0l287 500l-272 481h206l201 -412h37l201 412h194l-268 -481l289 -500h-199l-217 428h-43l-217 -428h-199z" />
<glyph unicode="y" horiz-adv-x="1001" d="M31 981h188l279 -834h24l269 834h180l-400 -1143q-51 -140 -134.5 -204t-213.5 -64h-76v147q134 0 198.5 39.5t96.5 141.5l39 120h-102z" />
<glyph unicode="z" horiz-adv-x="915" d="M92 0v139l508 672v18h-504v152h709v-137l-504 -676v-16h522v-152h-731z" />
<glyph unicode="{" horiz-adv-x="645" d="M86 508v110q54 0 88.5 32.5t34.5 78.5v451q0 119 66.5 186.5t175.5 67.5h151v-152h-102q-55 0 -84 -34t-29 -97v-420q0 -60 -38 -109.5t-87 -52.5v-10q51 -2 88 -50.5t37 -119.5v-422q0 -53 28 -82.5t83 -29.5h102v-152h-149q-110 0 -176 58.5t-66 166.5v461 q0 52 -33.5 85.5t-89.5 33.5z" />
<glyph unicode="|" horiz-adv-x="497" d="M168 -297v1731h162v-1731h-162z" />
<glyph unicode="}" horiz-adv-x="645" d="M43 -145h100q57 0 86 34t29 97v422q0 59 38 107.5t87 51.5v11q-51 2 -88 50.5t-37 119.5v421q0 53 -29 83t-84 30h-102v152h150q110 0 175.5 -58.5t65.5 -165.5v-462q0 -52 34.5 -85.5t90.5 -33.5v-111q-56 0 -90.5 -31.5t-34.5 -78.5v-451q0 -120 -65.5 -187t-175.5 -67 h-150v152z" />
<glyph unicode="~" horiz-adv-x="1091" d="M115 711q44 77 110 130.5t144 53.5q68 0 131 -26t117 -52t100 -26q81 0 141 102l117 -57q-43 -86 -112.5 -142.5t-151.5 -56.5q-50 0 -98.5 16.5t-79.5 35.5t-71 35.5t-77 16.5q-89 0 -160 -102z" />
<glyph unicode="&#xa1;" horiz-adv-x="473" d="M100 864q0 58 39.5 97.5t96.5 39.5q58 0 97.5 -39.5t39.5 -97.5q0 -57 -39.5 -96t-97.5 -39q-57 0 -96.5 39t-39.5 96zM152 -446v1026h170v-1026h-170z" />
<glyph unicode="&#xa2;" horiz-adv-x="862" d="M96 498q0 230 96 356t277 143v166h131v-164q76 -7 170 -36v-154q-103 29 -170 31v-695q84 6 170 35v-157q-71 -32 -170 -41v-166h-131v168q-175 21 -274 153.5t-99 360.5zM266 494q0 -137 52.5 -224.5t150.5 -113.5v678q-203 -44 -203 -340z" />
<glyph unicode="&#xa3;" horiz-adv-x="1263" d="M137 0v150q62 15 104 75.5t46 141.5l18 262h-168v149h178l21 264q11 197 126 304.5t320 107.5q200 0 342 -57v-156q-142 45 -317 45q-268 0 -289 -244l-22 -264h475v-149h-488l-22 -273q-9 -131 -84 -206h817v-150h-1057z" />
<glyph unicode="&#xa4;" horiz-adv-x="972" d="M57 801l123 123l144 -142q77 54 163 54q87 0 164 -54l142 142l118 -121l-139 -141q43 -64 43 -154q0 -97 -47 -168l143 -143l-116 -121l-148 145q-71 -49 -160 -49q-88 0 -159 49l-146 -145l-123 123l146 143q-47 67 -47 166q0 94 43 154zM279 506q0 -90 59 -150.5 t149 -60.5q85 0 146 61t61 150q0 86 -61 146.5t-146 60.5q-89 0 -148.5 -60t-59.5 -147z" />
<glyph unicode="&#xa5;" horiz-adv-x="1333" d="M66 1434h217l376 -699h23l379 699h207l-455 -768h324v-136h-379v-114h381v-135h-381v-281h-183v281h-378v135h378v114h-380v136h325z" />
<glyph unicode="&#xa6;" horiz-adv-x="497" d="M168 -297v780h162v-780h-162zM168 655v779h162v-779h-162z" />
<glyph unicode="&#xa7;" horiz-adv-x="1304" d="M207 625q0 137 119 249q-80 80 -80 232q0 170 116.5 259t325.5 89q226 0 383 -63v-152q-179 51 -391 51q-130 0 -202 -45.5t-72 -140.5q0 -144 141 -168l336 -59q128 -22 187.5 -84.5t59.5 -184.5q0 -136 -114 -250q71 -77 71 -208q0 -178 -108.5 -268.5t-310.5 -90.5 q-230 0 -404 59v144q185 -53 406 -53q131 0 195.5 47.5t64.5 146.5q0 73 -33.5 114t-114.5 54l-352 62q-117 21 -170 86t-53 174zM356 659q0 -63 33.5 -99.5t108.5 -49.5l360 -66q31 -5 70 -22q57 80 57 153q0 72 -39.5 108.5t-130.5 51.5l-319 60q-43 6 -80 22 q-60 -75 -60 -158z" />
<glyph unicode="&#xa8;" horiz-adv-x="761" d="M84 1255q0 43 30.5 73t69.5 30q47 0 76 -29t29 -74q0 -41 -29.5 -71.5t-75.5 -30.5q-38 0 -69 31t-31 71zM471 1255q0 43 31 73t69 30q49 0 78 -29t29 -74q0 -42 -29.5 -72t-77.5 -30q-37 0 -68.5 31.5t-31.5 70.5z" />
<glyph unicode="&#xa9;" horiz-adv-x="1665" d="M94 717q0 212 93.5 380t262 262.5t381.5 94.5q160 0 297.5 -55.5t234 -153t151.5 -234t55 -294.5q0 -161 -54.5 -298t-151 -233.5t-234 -151t-298.5 -54.5q-216 0 -384 93.5t-260.5 261t-92.5 382.5zM246 717q0 -268 161 -433t424 -165q264 0 426 165.5t162 432.5 q0 174 -73 310t-207.5 212t-307.5 76q-263 0 -424 -166.5t-161 -431.5zM510 713q0 188 85 286.5t249 98.5q44 0 81.5 -6t55.5 -11.5t53 -17.5v-117q-100 27 -172 27q-107 0 -161 -63.5t-54 -198.5q0 -128 56.5 -199.5t160.5 -71.5q94 0 170 25v-115q-82 -33 -194 -33 q-153 0 -241.5 106.5t-88.5 289.5z" />
<glyph unicode="&#xaa;" horiz-adv-x="860" d="M90 877q0 106 70 169.5t217 63.5h225v61q0 84 -48.5 120t-145.5 36q-118 0 -250 -24v106q126 37 278 37q299 0 299 -279v-514h-108l-17 109q-73 -63 -139.5 -93t-153.5 -30q-100 0 -163.5 60t-63.5 178zM217 881q0 -68 35.5 -100.5t95.5 -32.5q66 0 122.5 29.5 t131.5 96.5v130h-203q-101 0 -141.5 -31t-40.5 -92z" />
<glyph unicode="&#xab;" horiz-adv-x="1128" d="M82 428v137l457 324v-182l-287 -203v-17l287 -202v-187zM559 428v137l457 324v-182l-287 -203v-17l287 -202v-187z" />
<glyph unicode="&#xac;" horiz-adv-x="995" d="M104 426v162h787v-479h-152v317h-635z" />
<glyph unicode="&#xad;" horiz-adv-x="892" d="M104 428v160h684v-160h-684z" />
<glyph unicode="&#xae;" horiz-adv-x="884" d="M94 1245q0 161 95 254.5t251 93.5q162 0 255 -93t93 -255q0 -160 -93.5 -252t-254.5 -92q-155 0 -250.5 94t-95.5 250zM164 1245q0 -125 76 -201.5t200 -76.5q130 0 205.5 74.5t75.5 203.5q0 132 -75 207.5t-206 75.5q-124 0 -200 -77t-76 -206zM305 1061v373h62l6 -39 l35 28q21 17 55 17q54 0 89.5 -31.5t35.5 -91.5q0 -76 -72 -115l90 -141h-90l-61 123q-6 -2 -19 -2h-55v-121h-76zM381 1241h49q37 0 59.5 18.5t22.5 49.5q0 65 -70 65q-17 0 -32 -10l-29 -23v-100z" />
<glyph unicode="&#xaf;" horiz-adv-x="794" d="M84 1180v135h627v-135h-627z" />
<glyph unicode="&#xb0;" horiz-adv-x="532" d="M41 1174q0 96 62.5 161.5t160.5 65.5q97 0 162.5 -66t65.5 -161q0 -94 -65 -158t-163 -64q-97 0 -160 63.5t-63 158.5zM145 1174q0 -52 34.5 -86.5t86.5 -34.5t86.5 34.5t34.5 86.5q0 55 -33.5 90.5t-87.5 35.5q-52 0 -86.5 -36.5t-34.5 -89.5z" />
<glyph unicode="&#xb1;" horiz-adv-x="995" d="M104 -43v160h787v-160h-787zM104 539v159h312v326h164v-326h311v-159h-311v-328h-164v328h-312z" />
<glyph unicode="&#xb2;" horiz-adv-x="667" d="M68 676v151l237 172q71 56 102 102t31 97q0 121 -145 121q-101 0 -217 -29v119q105 37 221 37q143 0 216 -65t73 -179q0 -85 -44 -149t-130 -127l-176 -127v-11h376v-112h-544z" />
<glyph unicode="&#xb3;" horiz-adv-x="579" d="M55 688v117q107 -21 172 -21q73 0 111.5 30.5t38.5 84.5q0 51 -29.5 72.5t-87.5 21.5h-129v117h152l39 45q30 39 30 74q0 74 -88 74h-198l-11 131h236q100 0 152.5 -49t52.5 -134q0 -69 -58 -131l-39 -41q127 -50 127 -186q0 -98 -70 -162.5t-214 -64.5q-101 0 -187 22z " />
<glyph unicode="&#xb4;" horiz-adv-x="468" d="M80 1100l139 340h170l-164 -340h-145z" />
<glyph unicode="&#xb5;" horiz-adv-x="1073" d="M127 -430v1411h182v-625q0 -109 41.5 -163t114.5 -54q56 0 93 21t91 69l94 86v666h183v-981h-144l-22 147l-84 -73q-54 -49 -109.5 -71.5t-128.5 -22.5q-80 0 -139 34v-444h-172z" />
<glyph unicode="&#xb6;" horiz-adv-x="1445" d="M156 903q0 254 133 392.5t370 138.5h213v-1731h-167v686h-50q-230 0 -364.5 133.5t-134.5 380.5zM330 903q0 -169 90 -258.5t235 -89.5h50v717h-48q-152 0 -239.5 -93t-87.5 -276zM1100 -297v1731h168v-1731h-168z" />
<glyph unicode="&#xb7;" horiz-adv-x="450" d="M84 535q0 59 40.5 100t100.5 41q59 0 100.5 -41.5t41.5 -99.5q0 -59 -41.5 -100.5t-100.5 -41.5q-60 0 -100.5 41.5t-40.5 100.5z" />
<glyph unicode="&#xb8;" horiz-adv-x="575" d="M111 -428l10 109h158q58 0 85 14.5t27 36.5q0 39 -37 45l-55 10q-47 9 -67.5 35.5t-20.5 77.5v110h108v-73q0 -23 6 -34.5t23 -15.5l62 -16q98 -26 98 -129q0 -87 -64 -128.5t-163 -41.5h-170z" />
<glyph unicode="&#xb9;" horiz-adv-x="499" d="M59 1169v146l213 119h144v-758h-152v600h-12z" />
<glyph unicode="&#xba;" horiz-adv-x="868" d="M94 1044q0 188 90 297t248 109q170 0 255 -105t85 -301q0 -195 -86.5 -300t-253.5 -105q-160 0 -249 106t-89 299zM240 1044q0 -135 48.5 -211.5t143.5 -76.5q197 0 197 288q0 287 -195 287q-96 0 -145 -76.5t-49 -210.5z" />
<glyph unicode="&#xbb;" horiz-adv-x="1130" d="M113 119v182l286 203v16l-286 203v186l458 -329v-138zM590 119v182l287 203v16l-287 203v186l459 -329v-138z" />
<glyph unicode="&#xbc;" horiz-adv-x="1517" d="M59 1169v146l213 119h144v-758h-152v600h-12zM205 0l749 1434h170l-749 -1434h-170zM881 135l104 623h145l-83 -508h194v309h139v-309h115v-115h-115v-135h-139v135h-360z" />
<glyph unicode="&#xbd;" horiz-adv-x="1497" d="M59 1169v146l213 119h144v-758h-152v600h-12zM205 0l749 1434h170l-749 -1434h-170zM897 0v152l238 172q71 56 102 101.5t31 96.5q0 121 -146 121q-101 0 -217 -29v119q105 37 221 37q143 0 216 -65t73 -179q0 -85 -44 -149t-130 -127l-176 -127v-10h377v-113h-545z" />
<glyph unicode="&#xbe;" horiz-adv-x="1597" d="M55 688v117q107 -21 172 -21q73 0 111.5 30.5t38.5 84.5q0 51 -29.5 72.5t-87.5 21.5h-129v117h152l39 45q30 39 30 74q0 74 -88 74h-198l-11 131h236q100 0 152.5 -49t52.5 -134q0 -69 -58 -131l-39 -41q127 -50 127 -186q0 -98 -70 -162.5t-214 -64.5q-101 0 -187 22z M285 0l749 1434h170l-749 -1434h-170zM961 135l104 623h145l-84 -508h195v309h139v-309h115v-115h-115v-135h-139v135h-360z" />
<glyph unicode="&#xbf;" horiz-adv-x="966" d="M90 -80q0 119 54.5 194.5t154.5 121.5l150 65q56 25 81 62t25 110q0 81 -27 160l154 33q43 -103 43 -222q0 -185 -184 -268l-160 -70q-123 -53 -123 -186q0 -217 260 -217q86 0 177 19.5t157 46.5l41 -158q-183 -80 -377 -80q-426 0 -426 389zM424 874q0 52 37 89.5 t90 37.5q54 0 91.5 -37t37.5 -90q0 -54 -37.5 -90t-91.5 -36q-53 0 -90 36t-37 90z" />
<glyph unicode="&#xc0;" d="M51 0l514 1434h187l516 -1434h-191l-110 317h-617l-108 -317h-191zM397 467h521l-256 733h-11zM442 1898h172l138 -337h-146z" />
<glyph unicode="&#xc1;" d="M51 0l514 1434h187l516 -1434h-191l-110 317h-617l-108 -317h-191zM397 467h521l-256 733h-11zM553 1552l139 340h170l-164 -340h-145z" />
<glyph unicode="&#xc2;" d="M51 0l514 1434h187l516 -1434h-191l-110 317h-617l-108 -317h-191zM336 1561l221 337h178l221 -337h-145l-166 233l-164 -233h-145zM397 467h521l-256 733h-11z" />
<glyph unicode="&#xc3;" d="M51 0l514 1434h187l516 -1434h-191l-110 317h-617l-108 -317h-191zM326 1612v145q46 35 88 53.5t100 18.5q54 0 106.5 -22t100 -44t88.5 -22q90 0 160 61v-145q-40 -31 -78 -46.5t-92 -15.5q-47 0 -97.5 22t-98.5 44t-89 22q-87 0 -188 -71zM397 467h521l-256 733h-11z " />
<glyph unicode="&#xc4;" d="M51 0l514 1434h187l516 -1434h-191l-110 317h-617l-108 -317h-191zM362 1708q0 43 30.5 72.5t70.5 29.5q47 0 75.5 -28.5t28.5 -73.5q0 -41 -29 -71.5t-75 -30.5q-39 0 -70 31t-31 71zM397 467h521l-256 733h-11zM750 1708q0 43 31 72.5t69 29.5q49 0 77.5 -28.5 t28.5 -73.5q0 -42 -29 -72t-77 -30q-37 0 -68.5 31.5t-31.5 70.5z" />
<glyph unicode="&#xc5;" d="M51 0l514 1434h187l516 -1434h-191l-110 317h-617l-108 -317h-191zM397 467h521l-256 733h-11zM475 1726q0 75 52.5 125t131.5 50q74 0 127.5 -51.5t53.5 -123.5q0 -75 -53 -124.5t-128 -49.5q-80 0 -132 49t-52 125zM565 1726q0 -39 26 -65.5t68 -26.5q40 0 65.5 26.5 t25.5 65.5q0 41 -25.5 67t-65.5 26q-43 0 -68.5 -25t-25.5 -68z" />
<glyph unicode="&#xc6;" horiz-adv-x="1890" d="M61 0l514 1434h1186v-170h-680v-447h572l-17 -166h-555v-481h686v-170h-868v377h-516l-131 -377h-191zM434 526h465v738h-205z" />
<glyph unicode="&#xc7;" horiz-adv-x="1187" d="M123 717q0 187 48.5 330.5t134 231t196.5 131.5t243 44q188 0 334 -47v-162q-137 35 -291 35q-225 0 -353 -140.5t-128 -422.5q0 -279 124.5 -421t361.5 -142q170 0 292 41v-164q-130 -48 -321 -51v-43q0 -23 6 -34.5t23 -15.5l61 -16q98 -26 98 -129q0 -87 -64 -128.5 t-163 -41.5h-170l10 109h158q58 0 85.5 14.5t27.5 36.5q0 39 -37 45l-56 10q-47 9 -67.5 35.5t-20.5 77.5v86q-253 29 -392.5 220t-139.5 511z" />
<glyph unicode="&#xc8;" horiz-adv-x="1175" d="M184 0v1434h863v-170h-680v-447h571l-16 -166h-555v-481h686v-170h-869zM424 1898h172l137 -337h-145z" />
<glyph unicode="&#xc9;" horiz-adv-x="1175" d="M184 0v1434h863v-170h-680v-447h571l-16 -166h-555v-481h686v-170h-869zM535 1552l139 340h170l-164 -340h-145z" />
<glyph unicode="&#xca;" horiz-adv-x="1175" d="M184 0v1434h863v-170h-680v-447h571l-16 -166h-555v-481h686v-170h-869zM317 1561l222 337h178l221 -337h-145l-166 233l-164 -233h-146z" />
<glyph unicode="&#xcb;" horiz-adv-x="1175" d="M184 0v1434h863v-170h-680v-447h571l-16 -166h-555v-481h686v-170h-869zM344 1708q0 43 30.5 72.5t69.5 29.5q47 0 76 -28.5t29 -73.5q0 -41 -29.5 -71.5t-75.5 -30.5q-38 0 -69 31t-31 71zM731 1708q0 43 31 72.5t69 29.5q49 0 78 -28.5t29 -73.5q0 -42 -29.5 -72 t-77.5 -30q-37 0 -68.5 31.5t-31.5 70.5z" />
<glyph unicode="&#xcc;" horiz-adv-x="950" d="M143 0v152h238v1130h-238v152h664v-152h-238v-1130h238v-152h-664zM264 1898h172l137 -337h-145z" />
<glyph unicode="&#xcd;" horiz-adv-x="950" d="M143 0v152h238v1130h-238v152h664v-152h-238v-1130h238v-152h-664zM375 1552l139 340h170l-164 -340h-145z" />
<glyph unicode="&#xce;" horiz-adv-x="950" d="M143 0v152h238v1130h-238v152h664v-152h-238v-1130h238v-152h-664zM158 1561l221 337h178l221 -337h-145l-166 233l-164 -233h-145z" />
<glyph unicode="&#xcf;" horiz-adv-x="950" d="M143 0v152h238v1130h-238v152h664v-152h-238v-1130h238v-152h-664zM184 1708q0 43 30.5 72.5t70.5 29.5q47 0 75.5 -28.5t28.5 -73.5q0 -41 -29 -71.5t-75 -30.5q-39 0 -70 31t-31 71zM571 1708q0 43 31.5 72.5t69.5 29.5q49 0 77.5 -28.5t28.5 -73.5q0 -42 -29 -72 t-77 -30q-37 0 -69 31.5t-32 70.5z" />
<glyph unicode="&#xd0;" horiz-adv-x="1392" d="M41 641v152h170v641h407q308 0 480 -183.5t172 -539.5q0 -152 -36 -274t-97 -202.5t-145.5 -134t-178.5 -77t-199 -23.5h-403v641h-170zM389 164h207q111 0 198 29.5t153.5 92.5t102 170t35.5 253q0 273 -120 417t-367 144h-209v-477h336v-152h-336v-477z" />
<glyph unicode="&#xd1;" horiz-adv-x="1513" d="M184 0v1434h299l656 -1250h18l-10 1250h182v-1434h-297l-653 1249h-23l9 -1249h-181zM430 1612v145q46 35 88 53.5t100 18.5q54 0 106.5 -22t100 -44t88.5 -22q90 0 160 61v-145q-40 -31 -78 -46.5t-92 -15.5q-47 0 -97.5 22t-98.5 44t-89 22q-87 0 -188 -71z" />
<glyph unicode="&#xd2;" horiz-adv-x="1411" d="M123 717q0 360 160 548.5t426 188.5q268 0 423.5 -187.5t155.5 -549.5q0 -192 -41 -335t-118 -230t-181.5 -129.5t-236.5 -42.5q-105 0 -193 25.5t-161.5 82t-125 141.5t-80 209t-28.5 279zM317 717q0 -300 104 -439t290 -139q192 0 288.5 137t96.5 441q0 283 -105 430 t-280 147q-181 0 -287.5 -146.5t-106.5 -430.5zM494 1898h172l137 -337h-146z" />
<glyph unicode="&#xd3;" horiz-adv-x="1411" d="M123 717q0 360 160 548.5t426 188.5q268 0 423.5 -187.5t155.5 -549.5q0 -192 -41 -335t-118 -230t-181.5 -129.5t-236.5 -42.5q-105 0 -193 25.5t-161.5 82t-125 141.5t-80 209t-28.5 279zM317 717q0 -300 104 -439t290 -139q192 0 288.5 137t96.5 441q0 283 -105 430 t-280 147q-181 0 -287.5 -146.5t-106.5 -430.5zM604 1552l139 340h170l-163 -340h-146z" />
<glyph unicode="&#xd4;" horiz-adv-x="1411" d="M123 717q0 360 160 548.5t426 188.5q268 0 423.5 -187.5t155.5 -549.5q0 -192 -41 -335t-118 -230t-181.5 -129.5t-236.5 -42.5q-105 0 -193 25.5t-161.5 82t-125 141.5t-80 209t-28.5 279zM317 717q0 -300 104 -439t290 -139q192 0 288.5 137t96.5 441q0 283 -105 430 t-280 147q-181 0 -287.5 -146.5t-106.5 -430.5zM387 1561l221 337h178l222 -337h-146l-166 233l-164 -233h-145z" />
<glyph unicode="&#xd5;" horiz-adv-x="1411" d="M123 717q0 360 160 548.5t426 188.5q268 0 423.5 -187.5t155.5 -549.5q0 -192 -41 -335t-118 -230t-181.5 -129.5t-236.5 -42.5q-105 0 -193 25.5t-161.5 82t-125 141.5t-80 209t-28.5 279zM317 717q0 -300 104 -439t290 -139q192 0 288.5 137t96.5 441q0 283 -105 430 t-280 147q-181 0 -287.5 -146.5t-106.5 -430.5zM377 1612v145q46 35 88 53.5t100 18.5q54 0 106.5 -22t100 -44t88.5 -22q90 0 160 61v-145q-40 -31 -78 -46.5t-92 -15.5q-47 0 -97.5 22t-98.5 44t-89 22q-87 0 -188 -71z" />
<glyph unicode="&#xd6;" horiz-adv-x="1411" d="M123 717q0 360 160 548.5t426 188.5q268 0 423.5 -187.5t155.5 -549.5q0 -192 -41 -335t-118 -230t-181.5 -129.5t-236.5 -42.5q-105 0 -193 25.5t-161.5 82t-125 141.5t-80 209t-28.5 279zM317 717q0 -300 104 -439t290 -139q192 0 288.5 137t96.5 441q0 283 -105 430 t-280 147q-181 0 -287.5 -146.5t-106.5 -430.5zM414 1708q0 43 30.5 72.5t69.5 29.5q47 0 75.5 -28.5t28.5 -73.5q0 -41 -29 -71.5t-75 -30.5q-38 0 -69 31t-31 71zM801 1708q0 43 31 72.5t69 29.5q49 0 78 -28.5t29 -73.5q0 -42 -29.5 -72t-77.5 -30q-37 0 -68.5 31.5 t-31.5 70.5z" />
<glyph unicode="&#xd7;" horiz-adv-x="995" d="M154 276l229 230l-229 231l114 115l230 -231l229 229l115 -115l-230 -229l230 -227l-115 -115l-229 227l-230 -229z" />
<glyph unicode="&#xd8;" horiz-adv-x="1411" d="M123 717q0 360 160 548.5t426 188.5q139 0 254 -53l112 256l109 -49l-121 -273q225 -187 225 -618q0 -192 -41 -335t-118 -230t-181.5 -129.5t-236.5 -42.5q-133 0 -232 38l-133 -301l-104 50l135 305q-254 175 -254 645zM317 717q0 -331 134 -475l442 1001 q-82 51 -182 51q-181 0 -287.5 -146.5t-106.5 -430.5zM547 172q70 -33 164 -33q192 0 288.5 137t96.5 441q0 289 -113 440z" />
<glyph unicode="&#xd9;" horiz-adv-x="1431" d="M184 481v953h185v-965q0 -160 91 -242t251 -82q161 0 258.5 82.5t97.5 243.5v963h180v-951q0 -253 -141.5 -378t-394.5 -125q-250 0 -388.5 124.5t-138.5 376.5zM498 1898h172l137 -337h-145z" />
<glyph unicode="&#xda;" horiz-adv-x="1431" d="M184 481v953h185v-965q0 -160 91 -242t251 -82q161 0 258.5 82.5t97.5 243.5v963h180v-951q0 -253 -141.5 -378t-394.5 -125q-250 0 -388.5 124.5t-138.5 376.5zM608 1552l140 340h170l-164 -340h-146z" />
<glyph unicode="&#xdb;" horiz-adv-x="1431" d="M184 481v953h185v-965q0 -160 91 -242t251 -82q161 0 258.5 82.5t97.5 243.5v963h180v-951q0 -253 -141.5 -378t-394.5 -125q-250 0 -388.5 124.5t-138.5 376.5zM391 1561l221 337h179l221 -337h-146l-166 233l-163 -233h-146z" />
<glyph unicode="&#xdc;" horiz-adv-x="1431" d="M184 481v953h185v-965q0 -160 91 -242t251 -82q161 0 258.5 82.5t97.5 243.5v963h180v-951q0 -253 -141.5 -378t-394.5 -125q-250 0 -388.5 124.5t-138.5 376.5zM418 1708q0 43 30.5 72.5t69.5 29.5q47 0 76 -28.5t29 -73.5q0 -41 -29.5 -71.5t-75.5 -30.5q-38 0 -69 31 t-31 71zM805 1708q0 43 31 72.5t69 29.5q49 0 78 -28.5t29 -73.5q0 -42 -29.5 -72t-77.5 -30q-37 0 -68.5 31.5t-31.5 70.5z" />
<glyph unicode="&#xdd;" horiz-adv-x="1284" d="M41 1434h217l377 -699h22l379 699h207l-510 -863v-571h-182v565zM541 1552l139 340h170l-164 -340h-145z" />
<glyph unicode="&#xde;" horiz-adv-x="1230" d="M184 0v1434h183v-197h219q109 0 201 -28t165 -85t114.5 -152.5t41.5 -221.5q0 -122 -41.5 -216.5t-114 -152t-166 -86.5t-202.5 -29h-217v-266h-183zM367 420h196q175 0 269 89t94 245q0 159 -93 242t-268 83h-198v-659z" />
<glyph unicode="&#xdf;" horiz-adv-x="1187" d="M164 0v1063q0 76 23 142t68 118t118.5 81.5t167.5 29.5h51q191 0 289 -100t98 -259q0 -155 -86 -272l-59 -70q113 -31 177 -113.5t64 -244.5q0 -184 -100.5 -289.5t-269.5 -105.5q-138 0 -244 34v136q98 -33 211 -33q104 0 167.5 66t63.5 192q0 248 -244 248h-163v143 h190l68 90q61 83 61 205q0 106 -56 164.5t-171 58.5h-37q-102 0 -157.5 -63t-55.5 -166v-1055h-174z" />
<glyph unicode="&#xe0;" horiz-adv-x="985" d="M92 283q0 292 330 292h268v80q0 197 -221 197q-128 0 -311 -39v141q173 47 329 47q182 0 273.5 -85.5t91.5 -266.5v-649h-129l-21 133q-162 -151 -340 -151q-120 0 -195 75.5t-75 225.5zM242 291q0 -166 155 -166q79 0 142 35.5t151 118.5v159h-229q-125 0 -172 -34.5 t-47 -112.5zM274 1446h172l138 -338h-146z" />
<glyph unicode="&#xe1;" horiz-adv-x="985" d="M92 283q0 292 330 292h268v80q0 197 -221 197q-128 0 -311 -39v141q173 47 329 47q182 0 273.5 -85.5t91.5 -266.5v-649h-129l-21 133q-162 -151 -340 -151q-120 0 -195 75.5t-75 225.5zM242 291q0 -166 155 -166q79 0 142 35.5t151 118.5v159h-229q-125 0 -172 -34.5 t-47 -112.5zM385 1100l139 340h170l-164 -340h-145z" />
<glyph unicode="&#xe2;" horiz-adv-x="985" d="M92 283q0 292 330 292h268v80q0 197 -221 197q-128 0 -311 -39v141q173 47 329 47q182 0 273.5 -85.5t91.5 -266.5v-649h-129l-21 133q-162 -151 -340 -151q-120 0 -195 75.5t-75 225.5zM168 1108l221 338h178l221 -338h-145l-166 233l-164 -233h-145zM242 291 q0 -166 155 -166q79 0 142 35.5t151 118.5v159h-229q-125 0 -172 -34.5t-47 -112.5z" />
<glyph unicode="&#xe3;" horiz-adv-x="985" d="M92 283q0 292 330 292h268v80q0 197 -221 197q-128 0 -311 -39v141q173 47 329 47q182 0 273.5 -85.5t91.5 -266.5v-649h-129l-21 133q-162 -151 -340 -151q-120 0 -195 75.5t-75 225.5zM158 1159v146q46 35 87.5 53t100.5 18q54 0 106.5 -22t100 -44t88.5 -22 q88 0 160 62v-146q-77 -61 -170 -61q-47 0 -97.5 22t-98.5 44t-89 22q-86 0 -188 -72zM242 291q0 -166 155 -166q79 0 142 35.5t151 118.5v159h-229q-125 0 -172 -34.5t-47 -112.5z" />
<glyph unicode="&#xe4;" horiz-adv-x="985" d="M92 283q0 292 330 292h268v80q0 197 -221 197q-128 0 -311 -39v141q173 47 329 47q182 0 273.5 -85.5t91.5 -266.5v-649h-129l-21 133q-162 -151 -340 -151q-120 0 -195 75.5t-75 225.5zM195 1255q0 43 30.5 73t69.5 30q47 0 75.5 -29t28.5 -74q0 -41 -29 -71.5 t-75 -30.5q-38 0 -69 31t-31 71zM242 291q0 -166 155 -166q79 0 142 35.5t151 118.5v159h-229q-125 0 -172 -34.5t-47 -112.5zM582 1255q0 43 31 73t69 30q49 0 77.5 -29t28.5 -74q0 -42 -29 -72t-77 -30q-37 0 -68.5 31.5t-31.5 70.5z" />
<glyph unicode="&#xe5;" horiz-adv-x="985" d="M92 283q0 292 330 292h268v80q0 197 -221 197q-128 0 -311 -39v141q173 47 329 47q182 0 273.5 -85.5t91.5 -266.5v-649h-129l-21 133q-162 -151 -340 -151q-120 0 -195 75.5t-75 225.5zM242 291q0 -166 155 -166q79 0 142 35.5t151 118.5v159h-229q-125 0 -172 -34.5 t-47 -112.5zM307 1274q0 75 52.5 124.5t132.5 49.5q74 0 127 -51t53 -123q0 -75 -52.5 -124.5t-127.5 -49.5q-80 0 -132.5 49t-52.5 125zM397 1274q0 -39 26.5 -65.5t68.5 -26.5q40 0 65 26.5t25 65.5q0 41 -25 66.5t-65 25.5q-43 0 -69 -25t-26 -67z" />
<glyph unicode="&#xe6;" horiz-adv-x="1581" d="M92 283q0 135 82 212.5t256 77.5h268v82q0 105 -60.5 151t-174.5 46t-293 -33v144q144 38 317 38q233 0 318 -157q58 77 136.5 117t164.5 40q126 0 211.5 -61t123.5 -164t38 -244q0 -49 -11 -112h-614q10 -162 85.5 -228.5t227.5 -66.5q141 0 277 47v-133 q-145 -59 -307 -59q-260 0 -367 190q-110 -94 -203.5 -142t-204.5 -48q-119 0 -194.5 76.5t-75.5 226.5zM240 287q0 -86 42.5 -124t112.5 -38q159 0 326 170q-16 64 -21 135h-241q-124 0 -171.5 -34.5t-47.5 -108.5zM854 557h483q0 153 -55.5 224t-175.5 71 q-106 0 -172.5 -72.5t-79.5 -222.5z" />
<glyph unicode="&#xe7;" horiz-adv-x="868" d="M102 498q0 250 113 376.5t322 126.5q130 0 239 -38v-154q-103 33 -223 33q-281 0 -281 -348q0 -164 74 -256.5t211 -92.5q115 0 219 35v-157q-101 -43 -237 -43h-4v-43q0 -23 6 -34.5t22 -15.5l62 -16q98 -26 98 -129q0 -87 -64 -128.5t-163 -41.5h-170l10 109h158 q58 0 85 14.5t27 36.5q0 39 -37 45l-55 10q-47 9 -67.5 35.5t-20.5 77.5v92q-153 34 -238.5 164t-85.5 342z" />
<glyph unicode="&#xe8;" horiz-adv-x="989" d="M102 485q0 132 34.5 234t93 162t130.5 90t154 30q185 0 279 -123t94 -350q0 -80 -10 -118h-615q14 -151 89 -215t216 -64q157 0 281 41v-145q-139 -47 -303 -47q-205 0 -324 125t-119 380zM262 555h477q0 150 -59.5 224.5t-171.5 74.5q-97 0 -166 -73.5t-80 -225.5z M301 1446h172l137 -338h-145z" />
<glyph unicode="&#xe9;" horiz-adv-x="989" d="M102 485q0 132 34.5 234t93 162t130.5 90t154 30q185 0 279 -123t94 -350q0 -80 -10 -118h-615q14 -151 89 -215t216 -64q157 0 281 41v-145q-139 -47 -303 -47q-205 0 -324 125t-119 380zM262 555h477q0 150 -59.5 224.5t-171.5 74.5q-97 0 -166 -73.5t-80 -225.5z M412 1100l139 340h170l-164 -340h-145z" />
<glyph unicode="&#xea;" horiz-adv-x="989" d="M102 485q0 132 34.5 234t93 162t130.5 90t154 30q185 0 279 -123t94 -350q0 -80 -10 -118h-615q14 -151 89 -215t216 -64q157 0 281 41v-145q-139 -47 -303 -47q-205 0 -324 125t-119 380zM195 1108l221 338h178l221 -338h-145l-166 233l-164 -233h-145zM262 555h477 q0 150 -59.5 224.5t-171.5 74.5q-97 0 -166 -73.5t-80 -225.5z" />
<glyph unicode="&#xeb;" horiz-adv-x="989" d="M102 485q0 132 34.5 234t93 162t130.5 90t154 30q185 0 279 -123t94 -350q0 -80 -10 -118h-615q14 -151 89 -215t216 -64q157 0 281 41v-145q-139 -47 -303 -47q-205 0 -324 125t-119 380zM221 1255q0 43 31 73t70 30q47 0 75.5 -29t28.5 -74q0 -41 -29 -71.5t-75 -30.5 q-38 0 -69.5 31.5t-31.5 70.5zM262 555h477q0 150 -59.5 224.5t-171.5 74.5q-97 0 -166 -73.5t-80 -225.5zM608 1255q0 43 31.5 73t69.5 30q49 0 77.5 -29t28.5 -74q0 -42 -29 -72t-77 -30q-37 0 -69 31.5t-32 70.5z" />
<glyph unicode="&#xec;" horiz-adv-x="626" d="M102 840v141h344v-981h-172v840h-172zM139 1446h172l138 -338h-146z" />
<glyph unicode="&#xed;" horiz-adv-x="626" d="M102 840v141h344v-981h-172v840h-172zM250 1100l139 340h170l-164 -340h-145z" />
<glyph unicode="&#xee;" horiz-adv-x="626" d="M33 1108l221 338h178l221 -338h-145l-166 233l-164 -233h-145zM102 840v141h344v-981h-172v840h-172z" />
<glyph unicode="&#xef;" horiz-adv-x="626" d="M59 1255q0 43 31 73t70 30q47 0 75.5 -29t28.5 -74q0 -41 -29 -71.5t-75 -30.5q-38 0 -69.5 31.5t-31.5 70.5zM102 840v141h344v-981h-172v840h-172zM446 1255q0 43 31.5 73t69.5 30q49 0 77.5 -29t28.5 -74q0 -42 -29 -72t-77 -30q-37 0 -69 31.5t-32 70.5z" />
<glyph unicode="&#xf0;" horiz-adv-x="1069" d="M102 492q0 237 110.5 369t309.5 132q129 0 217 -75q-37 121 -86 217h-297v118h226q-58 89 -150 181h182q81 -87 142 -181h252v-118h-187q125 -269 125 -633q0 -248 -108 -385t-316 -137q-200 0 -310 133.5t-110 378.5zM274 492q0 -172 62 -266.5t186 -94.5q252 0 252 361 q0 358 -250 358q-125 0 -187.5 -94t-62.5 -264z" />
<glyph unicode="&#xf1;" horiz-adv-x="1081" d="M154 0v981h149l16 -162l95 86q56 49 113 72.5t141 23.5q137 0 208.5 -83t71.5 -246v-672h-180v618q0 218 -156 218q-95 0 -174 -76l-106 -101v-659h-178zM223 1159v146q45 35 87.5 53t101.5 18q54 0 106.5 -22t100 -44t88.5 -22q87 0 159 62v-146q-77 -61 -170 -61 q-47 0 -97.5 22t-98 44t-88.5 22q-87 0 -189 -72z" />
<glyph unicode="&#xf2;" horiz-adv-x="1034" d="M102 492q0 238 109.5 373.5t304.5 135.5q207 0 311.5 -131.5t104.5 -377.5q0 -248 -106 -380t-310 -132q-197 0 -305.5 133.5t-108.5 378.5zM274 492q0 -173 61 -270t181 -97q244 0 244 367q0 364 -244 364q-120 0 -181 -96.5t-61 -267.5zM319 1446h173l137 -338h-146z " />
<glyph unicode="&#xf3;" horiz-adv-x="1034" d="M102 492q0 238 109.5 373.5t304.5 135.5q207 0 311.5 -131.5t104.5 -377.5q0 -248 -106 -380t-310 -132q-197 0 -305.5 133.5t-108.5 378.5zM274 492q0 -173 61 -270t181 -97q244 0 244 367q0 364 -244 364q-120 0 -181 -96.5t-61 -267.5zM430 1100l139 340h170 l-164 -340h-145z" />
<glyph unicode="&#xf4;" horiz-adv-x="1034" d="M102 492q0 238 109.5 373.5t304.5 135.5q207 0 311.5 -131.5t104.5 -377.5q0 -248 -106 -380t-310 -132q-197 0 -305.5 133.5t-108.5 378.5zM213 1108l221 338h178l222 -338h-146l-166 233l-164 -233h-145zM274 492q0 -173 61 -270t181 -97q244 0 244 367q0 364 -244 364 q-120 0 -181 -96.5t-61 -267.5z" />
<glyph unicode="&#xf5;" horiz-adv-x="1034" d="M102 492q0 238 109.5 373.5t304.5 135.5q207 0 311.5 -131.5t104.5 -377.5q0 -248 -106 -380t-310 -132q-197 0 -305.5 133.5t-108.5 378.5zM203 1159v146q46 35 87.5 53t100.5 18q54 0 106.5 -22t100 -44t88.5 -22q88 0 160 62v-146q-77 -61 -170 -61q-47 0 -97.5 22 t-98.5 44t-89 22q-86 0 -188 -72zM274 492q0 -173 61 -270t181 -97q244 0 244 367q0 364 -244 364q-120 0 -181 -96.5t-61 -267.5z" />
<glyph unicode="&#xf6;" horiz-adv-x="1034" d="M102 492q0 238 109.5 373.5t304.5 135.5q207 0 311.5 -131.5t104.5 -377.5q0 -248 -106 -380t-310 -132q-197 0 -305.5 133.5t-108.5 378.5zM240 1255q0 43 30.5 73t69.5 30q47 0 75.5 -29t28.5 -74q0 -41 -29 -71.5t-75 -30.5q-38 0 -69 31t-31 71zM274 492 q0 -173 61 -270t181 -97q244 0 244 367q0 364 -244 364q-120 0 -181 -96.5t-61 -267.5zM627 1255q0 43 31 73t69 30q49 0 78 -29t29 -74q0 -42 -29.5 -72t-77.5 -30q-37 0 -68.5 31.5t-31.5 70.5z" />
<glyph unicode="&#xf7;" horiz-adv-x="995" d="M104 424v143h787v-143h-787zM367 111q0 55 37.5 93t93.5 38q54 0 92.5 -38t38.5 -93q0 -54 -38.5 -92.5t-92.5 -38.5q-55 0 -93 38.5t-38 92.5zM367 872q0 56 38 94t93 38q54 0 92.5 -38.5t38.5 -93.5t-38.5 -93t-92.5 -38q-56 0 -93.5 37.5t-37.5 93.5z" />
<glyph unicode="&#xf8;" horiz-adv-x="1034" d="M102 492q0 238 109.5 373.5t304.5 135.5q105 0 176 -32l99 196l102 -47l-105 -209q144 -129 144 -417q0 -248 -106 -380t-310 -132q-92 0 -174 32l-98 -196l-101 47l105 209q-146 134 -146 420zM274 492q0 -170 54 -259l297 598q-48 25 -109 25q-120 0 -181 -96.5 t-61 -267.5zM410 150q48 -25 106 -25q244 0 244 367q0 166 -51 258z" />
<glyph unicode="&#xf9;" horiz-adv-x="1085" d="M143 309v672h183v-625q0 -110 41.5 -163.5t117.5 -53.5q52 0 85.5 17.5t74.5 54.5l115 104v666h182v-981h-143l-23 158l-94 -84q-56 -48 -112 -71t-144 -23q-138 0 -210.5 83t-72.5 246zM330 1446h172l137 -338h-145z" />
<glyph unicode="&#xfa;" horiz-adv-x="1085" d="M143 309v672h183v-625q0 -110 41.5 -163.5t117.5 -53.5q52 0 85.5 17.5t74.5 54.5l115 104v666h182v-981h-143l-23 158l-94 -84q-56 -48 -112 -71t-144 -23q-138 0 -210.5 83t-72.5 246zM440 1100l140 340h170l-164 -340h-146z" />
<glyph unicode="&#xfb;" horiz-adv-x="1085" d="M143 309v672h183v-625q0 -110 41.5 -163.5t117.5 -53.5q52 0 85.5 17.5t74.5 54.5l115 104v666h182v-981h-143l-23 158l-94 -84q-56 -48 -112 -71t-144 -23q-138 0 -210.5 83t-72.5 246zM223 1108l221 338h179l221 -338h-146l-166 233l-163 -233h-146z" />
<glyph unicode="&#xfc;" horiz-adv-x="1085" d="M143 309v672h183v-625q0 -110 41.5 -163.5t117.5 -53.5q52 0 85.5 17.5t74.5 54.5l115 104v666h182v-981h-143l-23 158l-94 -84q-56 -48 -112 -71t-144 -23q-138 0 -210.5 83t-72.5 246zM250 1255q0 43 30.5 73t69.5 30q47 0 76 -29t29 -74q0 -41 -29.5 -71.5 t-75.5 -30.5q-38 0 -69 31t-31 71zM637 1255q0 43 31 73t69 30q49 0 78 -29t29 -74q0 -42 -29.5 -72t-77.5 -30q-37 0 -68.5 31.5t-31.5 70.5z" />
<glyph unicode="&#xfd;" horiz-adv-x="1001" d="M31 981h188l279 -834h24l269 834h180l-400 -1143q-51 -140 -134.5 -204t-213.5 -64h-76v147q134 0 198.5 39.5t96.5 141.5l39 120h-102zM418 1100l139 340h170l-164 -340h-145z" />
<glyph unicode="&#xfe;" horiz-adv-x="1073" d="M154 -453v1807h172v-518l80 77q48 46 100 67t123 21q161 0 251.5 -131.5t90.5 -359.5q0 -249 -109.5 -389.5t-288.5 -140.5q-133 0 -247 90v-523h-172zM326 254q57 -63 109 -93t114 -30q121 0 185.5 95t64.5 274q0 157 -54 248.5t-155 91.5q-73 0 -137 -64l-127 -129 v-393z" />
<glyph unicode="&#xff;" horiz-adv-x="1001" d="M31 981h188l279 -834h24l269 834h180l-400 -1143q-51 -140 -134.5 -204t-213.5 -64h-76v147q134 0 198.5 39.5t96.5 141.5l39 120h-102zM227 1255q0 43 31 73t70 30q47 0 75.5 -29t28.5 -74q0 -41 -29 -71.5t-75 -30.5q-38 0 -69.5 31.5t-31.5 70.5zM614 1255 q0 43 31.5 73t69.5 30q49 0 77.5 -29t28.5 -74q0 -42 -29 -72t-77 -30q-37 0 -69 31.5t-32 70.5z" />
<glyph unicode="&#x152;" horiz-adv-x="2086" d="M123 717q0 360 160 548.5t426 188.5q249 0 385 -174v154h862v-170h-678v-447h569l-16 -166h-553v-481h686v-170h-870v141q-130 -161 -383 -161q-132 0 -237.5 41.5t-185 128t-122.5 230.5t-43 337zM315 717q0 -300 104 -439t290 -139q192 0 288.5 137t96.5 441v28 q-6 269 -110 409t-275 140q-180 0 -287 -146.5t-107 -430.5z" />
<glyph unicode="&#x153;" horiz-adv-x="1636" d="M102 492q0 237 107 373t295 136q228 0 325 -190q55 95 142.5 142.5t189.5 47.5q185 0 279 -123t94 -350q0 -64 -8 -110h-617q13 -155 89 -225t216 -70q163 0 281 39v-135q-139 -47 -303 -47q-256 0 -367 188q-98 -188 -321 -188q-191 0 -296.5 133.5t-105.5 378.5z M274 492q0 -175 58 -271t172 -96q231 0 231 367q0 366 -231 366q-113 0 -171.5 -98t-58.5 -268zM909 555h477q0 150 -59.5 226.5t-171.5 76.5q-96 0 -165.5 -75t-80.5 -228z" />
<glyph unicode="&#x178;" horiz-adv-x="1284" d="M41 1434h217l377 -699h22l379 699h207l-510 -863v-571h-182v565zM350 1708q0 43 30.5 72.5t70.5 29.5q47 0 75.5 -28.5t28.5 -73.5q0 -41 -29 -71.5t-75 -30.5q-39 0 -70 31t-31 71zM737 1708q0 43 31.5 72.5t69.5 29.5q49 0 77.5 -28.5t28.5 -73.5q0 -42 -29 -72 t-77 -30q-37 0 -69 31.5t-32 70.5z" />
<glyph unicode="&#x2c6;" horiz-adv-x="788" d="M84 1108l221 338h178l222 -338h-146l-166 233l-164 -233h-145z" />
<glyph unicode="&#x2dc;" horiz-adv-x="870" d="M104 1159v146q45 35 87.5 53t101.5 18q54 0 106.5 -22t100 -44t88.5 -22q88 0 160 62v-146q-77 -61 -170 -61q-47 0 -97.5 22t-98.5 44t-89 22q-87 0 -189 -72z" />
<glyph unicode="&#x2000;" horiz-adv-x="950" />
<glyph unicode="&#x2001;" horiz-adv-x="1901" />
<glyph unicode="&#x2002;" horiz-adv-x="950" />
<glyph unicode="&#x2003;" horiz-adv-x="1901" />
<glyph unicode="&#x2004;" horiz-adv-x="633" />
<glyph unicode="&#x2005;" horiz-adv-x="475" />
<glyph unicode="&#x2006;" horiz-adv-x="316" />
<glyph unicode="&#x2007;" horiz-adv-x="316" />
<glyph unicode="&#x2008;" horiz-adv-x="237" />
<glyph unicode="&#x2009;" horiz-adv-x="380" />
<glyph unicode="&#x200a;" horiz-adv-x="105" />
<glyph unicode="&#x2010;" horiz-adv-x="892" d="M104 428v160h684v-160h-684z" />
<glyph unicode="&#x2011;" horiz-adv-x="892" d="M104 428v160h684v-160h-684z" />
<glyph unicode="&#x2012;" horiz-adv-x="892" d="M104 428v160h684v-160h-684z" />
<glyph unicode="&#x2013;" horiz-adv-x="1032" d="M104 428v160h824v-160h-824z" />
<glyph unicode="&#x2014;" horiz-adv-x="1288" d="M104 428v160h1080v-160h-1080z" />
<glyph unicode="&#x2018;" horiz-adv-x="401" d="M76 1176q0 172 135 249l51 29l35 -65l-53 -31q-45 -27 -58 -76q3 0 9.5 1t9.5 1q50 0 85.5 -36.5t35.5 -90.5t-36 -90.5t-89 -36.5q-55 0 -90 40t-35 106z" />
<glyph unicode="&#x2019;" horiz-adv-x="401" d="M76 1327q0 54 36 90.5t89 36.5q55 0 90 -39.5t35 -105.5q0 -172 -136 -250l-51 -29l-35 66l54 30q43 27 57 76q-6 -2 -18 -2q-50 0 -85.5 36.5t-35.5 90.5z" />
<glyph unicode="&#x201a;" horiz-adv-x="401" d="M76 111q0 54 36 90.5t89 36.5q55 0 90 -40t35 -106q0 -172 -136 -250l-51 -28l-35 65l54 31q42 27 57 76q-3 0 -9 -1t-9 -1q-50 0 -85.5 36.5t-35.5 90.5z" />
<glyph unicode="&#x201c;" horiz-adv-x="704" d="M76 1176q0 172 135 249l51 29l35 -65l-53 -31q-45 -27 -58 -76q3 0 9.5 1t9.5 1q50 0 85.5 -36.5t35.5 -90.5t-36 -90.5t-89 -36.5q-55 0 -90 40t-35 106zM395 1176q0 172 135 249l52 29l34 -65l-53 -31q-44 -26 -57 -76q3 0 9 1t9 1q50 0 85.5 -36.5t35.5 -90.5 t-36 -90.5t-89 -36.5q-55 0 -90 40t-35 106z" />
<glyph unicode="&#x201d;" horiz-adv-x="704" d="M76 1327q0 54 36 90.5t89 36.5q55 0 90 -39.5t35 -105.5q0 -172 -136 -250l-51 -29l-35 66l54 30q43 27 57 76q-6 -2 -18 -2q-50 0 -85.5 36.5t-35.5 90.5zM395 1327q0 54 36 90.5t89 36.5q55 0 90 -39.5t35 -105.5q0 -173 -135 -250l-51 -29l-35 66l53 30q44 28 58 76 q-6 -2 -19 -2q-50 0 -85.5 36.5t-35.5 90.5z" />
<glyph unicode="&#x201e;" horiz-adv-x="704" d="M76 111q0 54 36 90.5t89 36.5q55 0 90 -40t35 -106q0 -172 -136 -250l-51 -28l-35 65l54 31q42 27 57 76q-3 0 -9 -1t-9 -1q-50 0 -85.5 36.5t-35.5 90.5zM395 111q0 54 36 90.5t89 36.5q55 0 90 -40t35 -106q0 -173 -135 -250l-51 -28l-35 65l53 31q43 28 58 76 q-3 0 -9.5 -1t-9.5 -1q-50 0 -85.5 36.5t-35.5 90.5z" />
<glyph unicode="&#x2022;" horiz-adv-x="573" d="M102 514q0 78 54 131t131 53t130.5 -53t53.5 -131q0 -76 -53.5 -129t-130.5 -53t-131 53t-54 129z" />
<glyph unicode="&#x2026;" horiz-adv-x="1349" d="M84 125q0 60 40.5 100.5t100.5 40.5q59 0 100.5 -40.5t41.5 -100.5q0 -58 -41.5 -99.5t-100.5 -41.5q-60 0 -100.5 41t-40.5 100zM535 125q0 60 40.5 100.5t100.5 40.5q59 0 100 -40.5t41 -100.5q0 -59 -41.5 -100t-99.5 -41q-60 0 -100.5 41t-40.5 100zM983 125 q0 60 41 100.5t100 40.5q60 0 101 -40.5t41 -100.5q0 -59 -41 -100t-101 -41q-58 0 -99.5 41t-41.5 100z" />
<glyph unicode="&#x202f;" horiz-adv-x="380" />
<glyph unicode="&#x2039;" horiz-adv-x="651" d="M82 428v137l457 324v-182l-287 -203v-17l287 -202v-187z" />
<glyph unicode="&#x203a;" horiz-adv-x="653" d="M113 119v182l286 203v16l-286 203v186l458 -329v-138z" />
<glyph unicode="&#x205f;" horiz-adv-x="475" />
<glyph unicode="&#x20ac;" horiz-adv-x="1398" d="M100 500v135h195q-2 27 -2 82v47h-193v135h205q22 140 77.5 247.5t137 174t180.5 100t213 33.5q187 0 336 -47v-162q-137 35 -293 35q-184 0 -303.5 -95t-158.5 -286h585v-135h-602v-47q0 -55 2 -82h600v-135h-579q42 -172 159.5 -259t301.5 -87q170 0 294 41v-164 q-148 -51 -342 -51q-243 0 -399.5 135.5t-202.5 384.5h-211z" />
<glyph unicode="&#x2122;" horiz-adv-x="804" d="M6 1364v70h307v-70h-112v-303h-80v303h-115zM360 1061v373h111l90 -258h6l90 258h107v-373h-74l8 278h-4l-94 -239h-76l-94 239h-6l10 -278h-74z" />
<glyph unicode="&#x25fc;" horiz-adv-x="983" d="M0 0v983h983v-983h-983z" />
<glyph unicode="&#xfb01;" horiz-adv-x="1370" d="M94 831v150h154v117q0 159 78.5 252.5t253.5 93.5h102v-152h-76q-104 0 -144 -54.5t-40 -158.5v-98h225v-150h-225v-831h-174v831h-154zM846 831v150h344v-981h-172v831h-172zM989 1274q0 46 32.5 78t74.5 32q50 0 80 -31t30 -79q0 -43 -30.5 -75t-79.5 -32q-41 0 -74 33 t-33 74z" />
<glyph unicode="&#xfb02;" horiz-adv-x="1228" d="M94 831v150h154v117q0 159 78.5 252.5t253.5 93.5h102v-152h-76q-104 0 -144 -54.5t-40 -158.5v-98h225v-150h-225v-831h-174v831h-154zM897 0v1354h178v-1354h-178z" />
</font>
</defs>
</svg>
